<?xml version="1.0" encoding="utf-8"?>
<!-- Generator: Adobe Illustrator 16.0.4, SVG Export Plug-In . SVG Version: 6.00 Build 0)  -->
<!DOCTYPE svg PUBLIC "-//W3C//DTD SVG 1.1//EN" "http://www.w3.org/Graphics/SVG/1.1/DTD/svg11.dtd">
<svg version="1.1" id="Layer_1" xmlns="http://www.w3.org/2000/svg" xmlns:xlink="http://www.w3.org/1999/xlink" x="0px" y="0px"
	 width="335px" height="335px" viewBox="0 0 335 335" enable-background="new 0 0 335 335" xml:space="preserve">
<path d="M335.338,311.973l-143.973-24.662c0-13.252-10.744-23.994-23.996-23.994s-23.996,10.742-23.996,23.994L-0.598,311.973
	l0.261,0.991l93.343-112.353c11.478,6.627,26.153,2.691,32.778-8.782c6.626-11.479,2.695-26.152-8.782-32.778L167.63,22.036
	l50.629,137.015c-11.479,6.626-15.407,21.301-8.782,32.778s21.303,15.409,32.776,8.782l93.344,112.353 M167.37,179.497
	c-19.879,0-35.994,16.114-35.994,35.993s16.114,35.994,35.994,35.994c19.878,0,35.994-16.115,35.994-35.994
	S187.248,179.497,167.37,179.497z"/>
</svg>
